<svg viewBox="0 0 84.97 91.16" xmlns:xlink="http://www.w3.org/1999/xlink" xmlns="http://www.w3.org/2000/svg" id="Ebene_2">
  <defs>
    <style>
      .cls-1 {
        clip-path: url(#clippath);
      }

      .cls-2 {
        fill: none;
      }

      .cls-2, .cls-3 {
        stroke-width: 0px;
      }

      .cls-4 {
        clip-path: url(#clippath-1);
      }

      .cls-5 {
        clip-path: url(#clippath-4);
      }

      .cls-6 {
        clip-path: url(#clippath-3);
      }

      .cls-7 {
        clip-path: url(#clippath-2);
      }

      .cls-8 {
        clip-path: url(#clippath-7);
      }

      .cls-9 {
        clip-path: url(#clippath-8);
      }

      .cls-10 {
        clip-path: url(#clippath-6);
      }

      .cls-11 {
        clip-path: url(#clippath-5);
      }

      .cls-12 {
        clip-path: url(#clippath-9);
      }

      .cls-13 {
        clip-path: url(#clippath-10);
      }

      .cls-3 {
        fill: #fff;
      }
    </style>
    <clipPath id="clippath">
      <rect height="91.16" width="84.97" class="cls-2"></rect>
    </clipPath>
    <clipPath id="clippath-1">
      <rect height="91.16" width="84.97" class="cls-2"></rect>
    </clipPath>
    <clipPath id="clippath-2">
      <rect height="91.16" width="84.97" class="cls-2"></rect>
    </clipPath>
    <clipPath id="clippath-3">
      <rect height="91.16" width="84.97" class="cls-2"></rect>
    </clipPath>
    <clipPath id="clippath-4">
      <rect height="91.16" width="84.97" class="cls-2"></rect>
    </clipPath>
    <clipPath id="clippath-5">
      <rect height="91.16" width="84.97" class="cls-2"></rect>
    </clipPath>
    <clipPath id="clippath-6">
      <rect height="91.16" width="84.97" class="cls-2"></rect>
    </clipPath>
    <clipPath id="clippath-7">
      <rect height="91.16" width="84.97" class="cls-2"></rect>
    </clipPath>
    <clipPath id="clippath-8">
      <rect height="91.16" width="84.97" class="cls-2"></rect>
    </clipPath>
    <clipPath id="clippath-9">
      <rect height="91.16" width="84.97" class="cls-2"></rect>
    </clipPath>
    <clipPath id="clippath-10">
      <rect height="91.16" width="84.97" class="cls-2"></rect>
    </clipPath>
  </defs>
  <g id="Ebene_2-2">
    <g class="cls-1">
      <path d="M42.71,16.77c-8.43,0-16.36,3.28-22.32,9.25-5.96,5.96-9.25,13.89-9.25,22.32s3.28,16.36,9.25,22.32c5.96,5.96,13.89,9.25,22.32,9.25s16.36-3.28,22.32-9.25c5.96-5.96,9.25-13.89,9.25-22.32s-3.28-16.36-9.25-22.32c-5.96-5.96-13.89-9.25-22.32-9.25M42.71,80.92c-8.7,0-16.88-3.39-23.04-9.54-6.15-6.15-9.54-14.33-9.54-23.03s3.39-16.88,9.54-23.04c6.15-6.15,14.33-9.54,23.04-9.54s16.88,3.39,23.04,9.54c6.15,6.15,9.54,14.33,9.54,23.04s-3.39,16.88-9.54,23.03c-6.15,6.15-14.33,9.54-23.04,9.54" class="cls-3"></path>
      <path d="M63.26,68.86c-.78.78-1.61,1.52-2.46,2.2-.35-1.34-.66-2.76-.94-4.29-.59-3.19-.8-6.62-.63-10.49h.1v-1.24c.28-.08.56-.19.86-.3.41-.16.83-.32,1.26-.4,1.96-.36,3.65.02,5.29.39,1.22.27,2.4.54,3.69.54.17,0,.34,0,.52-.02-1.24,5.11-3.86,9.81-7.67,13.62M17.74,63.01c.91-.51,1.9-.95,3.07-1.17,1.88-.35,3.51-.01,5.08.34-.21,2.88-.69,5.76-1.45,8.65-.75-.62-1.48-1.27-2.18-1.97-1.77-1.78-3.29-3.74-4.53-5.85M22.27,27.87c5.47-5.47,12.75-8.49,20.5-8.49s15.02,3.02,20.5,8.49c3.84,3.84,6.47,8.57,7.69,13.72-1.41.09-2.68-.19-4.01-.49-1.73-.39-3.52-.79-5.69-.39-.94.17-1.73.69-2.43,1.15-.43.28-.84.55-1.18.66v-4.83c.33-.18.55-.53.55-.93v-3.59h-10.11v3.59c0,.43.26.81.64.97v7.46c-.55-.04-1.41-.2-2.08-.35-.04,0-.07-.01-.11-.02v-9.15c.25-.11.43-.36.43-.65v-1.41h-.6c-.24-1.07-.87-1.9-1.89-2.47-1.32-.73-2.68-.63-3.94.31-.76.57-1.24,1.29-1.41,2.16h-.59v1.41c0,.31.2.57.47.66v9.35c-.7.14-1.41.62-2,1.02-.04.03-.09.06-.13.09v-8.47c.33-.18.55-.53.55-.93v-3.59h-10.11v3.59c0,.43.26.81.64.97v11.33c-.22-.04-.58-.16-.82-.23-.28-.09-.56-.17-.8-.23-1.73-.39-3.52-.79-5.69-.39-2.17.4-3.7,1.42-5.17,2.4-.5.34-1,.66-1.5.96-.12-1.06-.18-2.13-.18-3.21,0-7.74,3.02-15.02,8.49-20.5M57.64,53v-3.66c.46-.16.91-.4,1.39-.66.75-.4,1.53-.81,2.41-.97,1.97-.36,3.65.02,5.29.39,1.63.37,3.17.71,5.02.44-.01,1.93-.21,3.83-.59,5.69-1.49.13-2.82-.16-4.22-.48-1.73-.39-3.52-.79-5.69-.39-.52.1-1.01.28-1.44.45-.17.07-.34.13-.5.18v-.99h-1.68ZM16.02,57.47c1.39-.93,2.83-1.89,4.8-2.25,1.87-.35,3.48-.02,5.04.33v.73h.1c.09,1.64.09,3.27,0,4.89-1.62-.36-3.31-.69-5.33-.31-1.32.24-2.41.72-3.39,1.28-.74-1.36-1.36-2.78-1.87-4.24.21-.14.43-.28.64-.42M27.95,53h-2.09v1.53c-1.59-.35-3.25-.65-5.22-.29-2.17.4-3.7,1.42-5.17,2.4-.14.09-.27.18-.41.27-.43-1.38-.75-2.81-.96-4.25.66-.36,1.29-.78,1.92-1.2,1.39-.93,2.83-1.89,4.8-2.25,1.97-.36,3.65.02,5.29.39.2.05.47.13.73.21.49.15.84.26,1.12.28v2.92ZM36.79,36.76c0,.24-.19.43-.43.43h-7.98c-.24,0-.43-.19-.43-.43v-2.96h8.85v2.96ZM39.01,50.94c-.61.12-1.12.52-1.58.88-.19.15-.38.3-.56.42v-4.9c.19-.09.42-.24.69-.43.41-.28.97-.66,1.44-.82v4.85ZM39.77,33.62c.16-.66.54-1.21,1.15-1.66,1.06-.79,2.15-.88,3.26-.26.82.46,1.33,1.09,1.55,1.92h-5.95ZM39.24,35.11s-.08-.03-.08-.07v-.79h7.17v.79s-.03.07-.07.07h-7.02ZM48.72,51.27c-.38-.05-.88-.13-1.33-.2-.39-.06-.67-.1-.86-.13v-5.1c.45.1,1.48.31,2.19.35v5.07ZM57.56,36.76c0,.24-.19.43-.43.43h-7.98c-.24,0-.43-.19-.43-.43v-2.96h8.85v2.96ZM57.64,43.55c.58-.1,1.14-.47,1.73-.86.65-.43,1.33-.87,2.07-1,1.96-.36,3.65.02,5.29.39,1.46.33,2.85.64,4.45.51.33,1.61.51,3.26.56,4.94-1.73.28-3.22-.05-4.79-.41-1.73-.39-3.52-.79-5.69-.39-1.03.19-1.92.66-2.69,1.07-.32.17-.63.33-.92.46v-4.71ZM49.35,37.82h7.67v15.17h-7.67v-15.17ZM39.01,53h-1.47c.18-.12.35-.26.51-.39.33-.26.65-.51.96-.63v1.02ZM45.9,53h-6.26v-17.26h6.26v17.26ZM48.72,53h-2.19v-1.03c.22.03.48.07.71.11.51.08,1.08.17,1.48.22v.71ZM36.25,53h-7.67v-15.17h7.67v15.17ZM58.7,55.65H26.48v-2.02h32.21v2.02ZM49.76,73.95c0-2.4,0-4.3.02-7.28,0-1.3-.32-2.49-1.02-3.64-1.08-1.78-2.57-2.89-4.41-3.28-2.95-.62-5.67.57-7.27,3.2-.56.92-.89,1.78-1.02,2.64-.02.15-.03.3-.03.49v10.47c-4.01-.95-7.76-2.75-11.03-5.3,1.34-5,1.87-9.95,1.6-14.98h32.01c-.16,3.9.05,7.38.64,10.6.31,1.65.64,3.17,1.02,4.6-3.14,2.39-6.71,4.09-10.51,5.03,0-.93,0-1.77,0-2.55M48.47,74.87c0-2.62,0-5.34.01-8,0-.96-.23-1.85-.71-2.72-1.63-2.93-4.57-3.45-6.77-2.65-1.35.49-2.38,1.46-3.14,2.97-.38.75-.56,1.53-.55,2.4.02,1.77.01,3.57.01,5.3,0,.69,0,1.38,0,2.06v.91c0,.57,0,1.14,0,1.71-.23-.04-.45-.09-.68-.14v-1.34c0-3.28,0-5.53,0-9.27,0-.16,0-.29.02-.4.12-.78.42-1.56.94-2.41,1.46-2.39,3.93-3.47,6.61-2.91,1.69.36,3,1.33,4,2.99.63,1.04.94,2.13.93,3.31-.02,2.98-.02,4.88-.02,7.29,0,.83,0,1.71,0,2.7-.22.05-.44.1-.66.14,0-.64,0-1.28,0-1.92M43.12,61.77c1.67.06,3.17,1.01,4.1,2.68.43.78.64,1.57.63,2.42-.02,2.67-.02,5.38-.01,8.01,0,.68,0,1.36,0,2.04-1.54.27-3.12.42-4.72.44v-15.58ZM37.95,74.22c0-.69,0-1.38,0-2.06,0-1.74,0-3.54-.01-5.31,0-.76.15-1.45.48-2.11.68-1.36,1.6-2.23,2.79-2.66.43-.16.86-.25,1.29-.29v15.56c-1.54-.01-3.06-.15-4.55-.39,0-.61,0-1.21,0-1.82v-.91ZM63.97,27.16c-5.66-5.66-13.2-8.78-21.21-8.78s-15.54,3.12-21.21,8.78c-5.66,5.66-8.78,13.2-8.78,21.21s3.12,15.54,8.78,21.21c5.66,5.66,13.2,8.78,21.21,8.78s15.54-3.12,21.21-8.78c5.66-5.66,8.78-13.2,8.78-21.21s-3.12-15.54-8.78-21.21" class="cls-3"></path>
      <path d="M31.26,27c.46.04.78-.14.96-.55.06-.13.13-.26.21-.39.12.2.23.39.34.59.13.24.33.36.61.35.21,0,.43,0,.65,0-.09.17-.18.32-.28.47-.13.2-.27.5,0,.89.1.15.19.31.29.48-.23,0-.46,0-.68,0-.27,0-.46.1-.59.34-.11.19-.22.39-.33.59-.12-.21-.24-.42-.37-.62-.1-.16-.32-.29-.51-.3-.19,0-.38,0-.58,0h-.14c.11-.19.21-.37.33-.55.15-.24.15-.48,0-.73-.11-.18-.22-.37-.33-.56.15,0,.29,0,.43.01M30.21,27.17c.14.25.28.49.42.72.01.02.02.03.02.04,0,0,0,.02-.02.03-.15.24-.28.48-.43.73-.06.1-.12.21-.18.32l-.27.47h.54c.12,0,.24,0,.36,0,.3,0,.58,0,.86,0,0,0,.02,0,.02.02.15.24.3.49.45.76.06.1.11.2.17.3l.27.47.27-.47c.06-.11.12-.21.18-.31.15-.26.29-.5.43-.75,0,0,0-.01,0-.01h0c.28,0,.56,0,.86,0,.12,0,.25,0,.37,0h.54l-.27-.47c-.06-.11-.12-.21-.17-.31-.13-.24-.26-.46-.4-.68-.05-.08-.06-.09.01-.2.14-.21.26-.43.39-.67.06-.1.11-.2.17-.3l.27-.47h-.54c-.13,0-.25,0-.37,0-.29,0-.56,0-.84,0h-.03s0-.01-.01-.02c-.14-.25-.28-.49-.43-.75-.06-.1-.12-.21-.18-.31l-.27-.47-.27.47c-.06.09-.11.19-.17.28-.13.21-.25.41-.35.63-.07.16-.12.2-.33.18-.23-.02-.46-.02-.69-.01-.1,0-.21,0-.32,0h-.54l.27.47c.06.11.12.22.18.32" class="cls-3"></path>
      <path d="M51.78,27c.59.09,1-.15,1.22-.7.03-.08.08-.16.13-.25.1.17.19.33.28.5.16.33.42.47.77.45.18-.01.36-.01.55-.01-.11.2-.22.39-.34.57-.15.23-.15.46,0,.7.11.18.22.37.33.57-.24,0-.46,0-.68,0h-.02c-.25,0-.43.11-.55.33-.11.2-.22.4-.35.6-.11-.19-.22-.37-.32-.56-.13-.25-.33-.37-.61-.37h-.04c-.21,0-.42,0-.64,0,.05-.09.1-.17.16-.25.35-.45.35-.91,0-1.36-.06-.07-.11-.16-.16-.25.09,0,.18,0,.26.02M50.86,28.75c-.04.08-.09.16-.13.25l-.27.47h.54c.13,0,.25,0,.37,0,.28,0,.55,0,.82,0h.02s.03,0,.03,0c0,0,.01.02.02.04.13.25.27.48.42.73.06.1.12.21.18.31l.27.47.27-.47c.07-.11.13-.22.19-.33.15-.26.3-.51.43-.76h0c.28,0,.57,0,.87,0,.12,0,.24,0,.37,0h.54l-.27-.47c-.06-.11-.12-.22-.18-.32-.14-.26-.28-.49-.43-.73,0-.01-.01-.02-.01-.03,0,0,0,0,0-.02.15-.24.28-.48.43-.73.06-.11.12-.21.18-.32l.27-.47h-.54c-.12,0-.24,0-.35,0-.27,0-.52,0-.78,0-.1,0-.12,0-.17-.1-.12-.23-.25-.45-.39-.69-.06-.1-.12-.2-.17-.3l-.27-.47-.27.47c-.05.09-.1.17-.15.24-.11.18-.22.35-.29.54-.11.28-.24.35-.54.31-.2-.03-.4-.02-.6-.02-.09,0-.18,0-.27,0h-.54l.27.47c.05.09.1.17.14.26.1.19.19.36.32.52.18.23.18.36,0,.58-.13.17-.23.36-.33.54" class="cls-3"></path>
    </g>
    <polygon points="42.01 29 42.63 29 42.63 26.54 41.53 26.54 41.53 26.26 42.63 26.26 42.63 25.32 42.98 25.32 42.98 26.25 44.09 26.25 44.09 26.52 43.01 26.52 43.01 29 43.63 29 43.63 27.15 44.72 27.15 44.72 25.62 43.61 25.62 43.61 24.69 42.01 24.69 42.01 25.63 40.9 25.63 40.9 27.17 42.01 27.17 42.01 29" class="cls-3"></polygon>
    <g class="cls-4">
      <path d="M15.46,16.59l1.12.16c.06,0,.1.04.13.09l.5,1.01c.06.13.24.13.31,0l.5-1.01c.02-.05.07-.09.13-.09l1.12-.17c.14-.02.2-.19.09-.29l-.81-.78s-.06-.09-.05-.15l.19-1.11c.02-.14-.12-.25-.25-.18l-1,.53c-.05.03-.11.03-.16,0l-1-.52c-.13-.07-.27.04-.25.18l.19,1.11c0,.06,0,.11-.05.15l-.8.79c-.1.1-.05.27.09.29" class="cls-3"></path>
      <path d="M65.47,16.2l1.12.16c.06,0,.1.04.13.09l.5,1.01c.06.13.24.13.31,0l.5-1.01s.07-.09.13-.09l1.12-.16c.14-.02.2-.19.09-.29l-.81-.79s-.06-.1-.05-.15l.19-1.11c.02-.14-.12-.25-.25-.18l-1,.52s-.11.03-.16,0l-1-.52c-.13-.07-.27.04-.25.18l.19,1.11c0,.06,0,.11-.05.15l-.81.79c-.1.1-.05.27.09.29" class="cls-3"></path>
      <path d="M72.27,23.55c-.9.82-1.68.8-2.38.03-.7-.77-.66-1.55.24-2.37l2.13-1.95-.29-.31.49-.44,1.09,1.19-.49.44-.29-.31-2.14,1.96c-.5.46-.63.89-.2,1.35.42.46.86.38,1.36-.08l2.14-1.96-.29-.31.48-.44,1.05,1.14-.49.44-.29-.31-2.13,1.95Z" class="cls-3"></path>
      <path d="M73.8,28.44l-.45-.63,2.16-3.8v-.02s-.53.39-1.12.81l-1.58,1.12.24.34-.54.38-.84-1.18.54-.38.25.35,3.19-2.27-.25-.35.54-.38.69.97-2.16,3.81v.02s.57-.42,1.12-.8l1.58-1.13-.24-.34.54-.38.84,1.18-.54.38-.25-.35-3.73,2.65Z" class="cls-3"></path>
    </g>
    <polygon points="75.71 30.41 75.14 30.74 74.35 29.37 74.92 29.04 75.13 29.41 78.53 27.45 78.31 27.08 78.88 26.75 79.68 28.13 79.11 28.45 78.89 28.09 75.5 30.04 75.71 30.41" class="cls-3"></polygon>
    <g class="cls-7">
      <path d="M76.53,33.57l-.42-.92,3.67-2.97-.16-.35.6-.27.66,1.44-.6.27-.17-.37-1.76,1.38c-.99.77-1.39,1.06-1.39,1.07v.02s.5-.12,1.73-.36l2.19-.44-.17-.37.6-.27.63,1.38-.6.27-.17-.36-4.64.86Z" class="cls-3"></path>
    </g>
    <polygon points="77.36 35.5 77.99 35.3 78.12 35.7 81.84 34.49 81.71 34.08 82.33 33.88 83.32 36.88 81.96 37.33 81.75 36.67 82.48 36.43 82.07 35.18 80.6 35.66 81.01 36.89 80.39 37.09 79.99 35.86 78.35 36.4 78.77 37.69 79.57 37.43 79.78 38.08 78.35 38.54 77.36 35.5" class="cls-3"></polygon>
    <g class="cls-6">
      <path d="M81.6,40.42c.09.44.4.74,1.06.6.59-.12.84-.51.73-1.05l-.11-.52-1.8.38.12.59ZM79.09,41.81l1.92-1.31-.05-.23-.07-.32-1.46.31.09.42-.64.14-.32-1.54.64-.13.09.42,3.83-.8-.09-.42.64-.14.35,1.7c.21,1-.31,1.66-1.2,1.85-.75.16-1.24-.08-1.52-.58l-1.47,1.05.1.47-.64.13-.21-1Z" class="cls-3"></path>
      <path d="M80.77,43.9c-.48.05-.74.41-.69.9.05.48.33.72.82.67.59-.06.74-.52.97-1.08.24-.57.48-1.3,1.5-1.4.84-.09,1.34.37,1.41,1.1.06.54-.13.88-.35,1.04v.02s.38-.02.38-.02l.06.62-1.6.16-.07-.66.27-.03c.51-.05.76-.41.71-.88-.04-.4-.26-.65-.72-.6-.55.06-.71.49-.89.95-.28.72-.54,1.43-1.59,1.54-.93.09-1.44-.39-1.52-1.18-.06-.55.12-.9.34-1.06v-.02s-.37.03-.37.03l-.06-.62,1.63-.17.07.66-.3.03Z" class="cls-3"></path>
    </g>
    <polygon points="84.26 46.98 84.27 47.41 80.35 47.49 80.34 47.06 79.68 47.08 79.72 48.66 80.38 48.65 80.37 48.22 84.28 48.14 84.29 48.57 84.95 48.55 84.92 46.97 84.26 46.98" class="cls-3"></polygon>
    <polygon points="83.47 50.29 84.26 50.34 84.21 51.11 80.31 50.85 80.34 50.37 79.68 50.33 79.57 51.99 80.23 52.03 80.26 51.57 84.17 51.83 84.11 52.6 83.32 52.55 83.27 53.21 84.72 53.31 84.97 49.71 83.51 49.61 83.47 50.29" class="cls-3"></polygon>
    <g class="cls-5">
      <path d="M79.67,55.89l-.08.43-.65-.12.29-1.56.65.12-.08.42,1.5.28,2.57-.77.07-.38.65.12-.29,1.58-.65-.12.07-.39-.96.26c-.52.14-.86.23-.87.23v.02s.3.22.73.54l.8.59.07-.38.65.12-.27,1.45-.65-.12.08-.4-2.13-1.62-1.5-.28Z" class="cls-3"></path>
    </g>
    <polygon points="80.7 63.58 81.45 63.85 81.71 63.12 78.02 61.8 77.86 62.24 77.25 62.01 77.81 60.45 78.43 60.68 78.27 61.12 81.95 62.44 82.21 61.72 81.46 61.45 81.69 60.81 83.06 61.31 81.84 64.7 80.47 64.2 80.7 63.58" class="cls-3"></polygon>
    <g class="cls-11">
      <path d="M78.66,66.56c1.08.23,1.49.34,1.51.34h0s-.36-.29-1.22-1l-.67-.56-.5,1.04.87.18ZM75.06,66.81l.69-1.43.59.29-.18.36.98.2.64-1.32-.77-.64-.18.36-.59-.29.66-1.37.59.29-.18.38,2.66,2.29c.19.15.38.3.41.34h.02c.02-.07.06-.15.1-.23l.09-.18.59.29-.72,1.49-4.63-.93-.19.38-.59-.29Z" class="cls-3"></path>
      <path d="M76.15,70.2c-.24.38-.23.81.33,1.17.5.32.95.23,1.26-.24l.29-.45-1.55-.99-.33.51ZM73.39,69.43l2.29.41.13-.2.17-.27-1.25-.8-.23.36-.55-.35.85-1.32.55.35-.23.36,3.3,2.11.23-.36.55.35-.94,1.46c-.55.86-1.38.97-2.15.48-.65-.42-.83-.93-.68-1.48l-1.78-.28-.26.4-.55-.35.55-.86Z" class="cls-3"></path>
      <path d="M70.26,73.49l.43-.53c.32.26.38.32.39.33h0c-.09-.34-.09-.82.28-1.27.65-.79,1.71-.88,3.19.33,1.54,1.26,1.65,2.26.99,3.08-.34.42-.79.58-1.14.53v.02s.33.3.33.3l-.39.47-1.38-1.13.42-.52.15.12c.39.32.97.37,1.4-.15.49-.6.21-1.28-.8-2.11-1.13-.93-1.85-.99-2.31-.43-.39.48-.26,1-.08,1.28l.63.51.62-.77.49.4-1.06,1.3-2.17-1.77Z" class="cls-3"></path>
      <path d="M68.4,77.72c-.85-.87-.85-1.66-.1-2.38.75-.72,1.53-.7,2.38.18l2.01,2.07.31-.3.46.47-1.15,1.12-.46-.47.31-.3-2.02-2.08c-.47-.49-.9-.6-1.36-.17-.45.44-.35.87.12,1.36l2.02,2.08.31-.3.46.47-1.11,1.08-.46-.47.31-.3-2.01-2.07Z" class="cls-3"></path>
      <path d="M61.68,81.4l-.37-.55,1.3-.88.37.55-.36.24.74,1.1c.62.92,1.13,1.72,1.14,1.73h.02s-.15-.5-.36-1.35l-.38-1.45.41-.27,1.2.9c.71.51,1.12.85,1.13.85h.01s-.55-.82-1.17-1.73l-.74-1.1-.35.23-.37-.55,1.23-.83.37.55-.35.24,2.18,3.25.35-.24.37.55-1.13.76-2.28-1.69h-.02s.71,2.76.71,2.76l-1.1.74-.37-.55.35-.24-2.18-3.25-.35.24Z" class="cls-3"></path>
      <path d="M58.34,84.23c-.54-1.09-.3-1.84.63-2.3.93-.46,1.67-.2,2.21.89l1.28,2.59.38-.19.29.59-1.44.71-.29-.59.38-.19-1.29-2.6c-.3-.61-.68-.85-1.24-.57-.56.28-.6.72-.3,1.33l1.29,2.6.38-.19.29.59-1.39.69-.29-.59.38-.19-1.28-2.59Z" class="cls-3"></path>
      <path d="M55.93,86.3c-.42.15-.68.5-.45,1.13.2.56.61.77,1.14.58l.5-.18-.62-1.73-.57.2ZM54.21,84l1.56,1.72.23-.08.3-.11-.5-1.4-.4.14-.22-.62,1.48-.53.22.62-.4.14,1.32,3.69.4-.14.22.62-1.63.58c-.96.34-1.69-.08-1.99-.94-.26-.73-.09-1.24.37-1.58l-1.24-1.31-.45.16-.22-.62.96-.34Z" class="cls-3"></path>
    </g>
    <polygon points="49.6 85.22 49.95 86.68 50.61 86.53 50.42 85.71 51.74 85.39 52.14 87.07 50.88 87.37 51.03 88 52.29 87.7 52.65 89.2 51.36 89.51 51.19 88.76 50.52 88.92 50.85 90.31 53.92 89.58 53.77 88.93 53.36 89.03 52.45 85.22 52.87 85.12 52.71 84.48 49.6 85.22" class="cls-3"></polygon>
    <g class="cls-10">
      <path d="M48.35,86.77c-.06-.47-.43-.73-.92-.66-.47.06-.71.35-.64.84.08.59.54.72,1.11.94.57.22,1.31.44,1.44,1.46.11.84-.34,1.35-1.06,1.44-.54.07-.89-.1-1.05-.32h-.02s.03.38.03.38l-.61.08-.21-1.59.66-.09.03.27c.07.5.43.74.9.68.4-.05.64-.28.58-.74-.07-.55-.51-.69-.97-.86-.73-.26-1.45-.5-1.58-1.54-.12-.93.35-1.45,1.13-1.55.55-.07.9.09,1.07.3h.02s-.04-.37-.04-.37l.62-.08.21,1.62-.66.09-.04-.3Z" class="cls-3"></path>
      <path d="M38.84,86.43l.02-.66,1.57.06-.02.66-.43-.02-.05,1.33c-.04,1.11-.09,2.06-.09,2.07h.02s.16-.48.5-1.3l.54-1.39.49.02.44,1.43c.28.83.41,1.35.42,1.35h.01s.03-.98.07-2.08l.05-1.33h-.42s.02-.67.02-.67l1.49.05-.02.66h-.43s-.14,3.9-.14,3.9h.43s-.02.67-.02.67l-1.37-.05-.85-2.71h-.02s-1.04,2.64-1.04,2.64l-1.32-.05.02-.66.43.02.14-3.91h-.43Z" class="cls-3"></path>
    </g>
    <polygon points="34.79 86.64 35.46 86.75 35.59 85.91 36.94 86.13 36.67 87.83 35.39 87.63 35.29 88.27 36.56 88.48 36.32 90 35.02 89.79 35.14 89.03 34.46 88.92 34.24 90.33 37.36 90.83 37.46 90.18 37.04 90.11 37.66 86.25 38.08 86.31 38.19 85.66 35.03 85.16 34.79 86.64" class="cls-3"></polygon>
    <g class="cls-8">
      <path d="M32.43,85.18c-.82-.23-1.38.24-1.72,1.48-.39,1.41-.12,2.07.69,2.29l.54.15,1.05-3.77-.55-.15ZM31.18,89.58c-1.32-.37-1.64-1.48-1.2-3.09.44-1.59,1.27-2.33,2.54-1.97l1.76.49-.18.63-.42-.12-1.05,3.77.42.12-.18.63-1.71-.47Z" class="cls-3"></path>
    </g>
    <polygon points="28.33 83.81 28.56 83.19 30.05 83.75 29.81 84.37 29.42 84.22 28.03 87.88 28.43 88.03 28.2 88.65 26.71 88.09 26.95 87.47 27.35 87.62 28.73 83.96 28.33 83.81" class="cls-3"></polygon>
    <g class="cls-9">
      <path d="M24.13,82.69c.56-.68,1.25-1.05,2.19-.6,1.01.49,1.3,1.52.47,3.25-.86,1.77-1.81,2.12-2.74,1.67-.48-.23-.73-.58-.77-.98h-.02s-.21.39-.21.39l-.54-.26.8-1.65.59.29-.09.17c-.22.47-.13,1.08.45,1.37.68.33,1.27-.1,1.84-1.28.65-1.35.55-2.02-.09-2.33-.5-.24-.92-.06-1.34.43l-.54-.47Z" class="cls-3"></path>
      <path d="M20.59,82.56c-.35,1.04-.51,1.44-.51,1.46h.01s.31-.32,1.12-1.09l.63-.6-.97-.62-.28.84ZM20.75,78.95l1.34.85-.35.55-.34-.22-.31.95,1.24.79.72-.69-.34-.22.35-.55,1.28.81-.35.55-.35-.22-2.58,2.38c-.17.17-.34.34-.38.37v.02c.07.03.14.08.21.12l.17.11-.35.55-1.4-.89,1.46-4.49-.36-.23.35-.56Z" class="cls-3"></path>
    </g>
    <polygon points="20.35 78.63 19.94 79.14 19.61 78.87 17.15 81.92 17.48 82.19 17.07 82.7 15.83 81.71 16.25 81.19 16.58 81.46 19.04 78.41 18.05 77.61 17.56 78.21 17.03 77.78 17.93 76.67 20.35 78.63" class="cls-3"></polygon>
    <g class="cls-12">
      <path d="M12.77,73.39c.78-.43,1.55-.51,2.25.26.76.83.64,1.89-.77,3.19-1.45,1.33-2.47,1.29-3.16.53-.36-.39-.46-.8-.35-1.2v-.02s-.36.3-.36.3l-.41-.45,1.35-1.23.44.49-.14.13c-.38.35-.52.96-.09,1.44.51.56,1.21.38,2.18-.5,1.1-1.01,1.27-1.67.79-2.2-.37-.41-.83-.4-1.4-.1l-.33-.63Z" class="cls-3"></path>
      <path d="M9.53,71.97c-.71.84-1.01,1.15-1.02,1.17h0s.41-.17,1.45-.59l.81-.32-.67-.93-.57.68ZM11.02,68.67l.93,1.29-.53.38-.24-.33-.64.77.86,1.19.93-.38-.24-.33.53-.39.89,1.23-.53.38-.25-.34-3.28,1.26c-.22.1-.44.19-.49.2v.02c.04.05.09.12.14.19l.12.16-.53.38-.97-1.35,3.02-3.63-.25-.35.53-.39Z" class="cls-3"></path>
      <path d="M7.99,64.52l.58-.31.74,1.38-.58.31-.2-.38-1.17.63c-.97.52-1.83.95-1.83.96v.02s.51-.1,1.38-.23l1.48-.23.23.43-1.01,1.1c-.58.66-.96,1.03-.95,1.04h0s.86-.46,1.83-.98l1.17-.63-.2-.37.58-.31.7,1.31-.58.31-.2-.38-3.45,1.85.2.38-.58.31-.65-1.21,1.91-2.1v-.02s-2.81.43-2.81.43l-.63-1.17.58-.31.2.38,3.45-1.85-.2-.38Z" class="cls-3"></path>
      <path d="M5.28,62.97c-.21-.55-.61-.71-1.22-.47-.63.24-.81.64-.6,1.18l.17.45,1.83-.71-.18-.45ZM2.84,63.89c-.36-.93-.05-1.68.95-2.07,1-.39,1.71-.03,2.07.91l.18.47,1.25-.48-.16-.41.61-.24.57,1.48-.61.24-.15-.4-3.65,1.41.15.4-.61.24-.6-1.56Z" class="cls-3"></path>
      <path d="M4.44,57.01c1.18-.31,1.86.08,2.12,1.08.26,1.01-.14,1.67-1.32,1.98l-2.79.73.11.41-.64.17-.41-1.56.64-.17.11.41,2.81-.74c.66-.17.97-.49.81-1.1-.16-.61-.59-.73-1.24-.56l-2.81.73.11.41-.64.17-.39-1.5.64-.17.11.41,2.79-.73Z" class="cls-3"></path>
      <path d="M4.45,55.1c.47-.07.72-.44.65-.93-.07-.47-.36-.7-.85-.63-.58.09-.71.55-.92,1.13-.21.57-.42,1.31-1.44,1.47-.84.12-1.35-.31-1.46-1.04-.08-.54.09-.89.31-1.06v-.02s-.38.04-.38.04l-.09-.61,1.59-.23.1.66-.27.04c-.5.07-.74.44-.67.91.06.4.29.64.75.57.55-.08.69-.52.84-.99.25-.73.47-1.45,1.52-1.61.92-.14,1.45.32,1.57,1.11.08.55-.08.9-.29,1.08v.02s.37-.05.37-.05l.09.62-1.62.24-.1-.66.3-.04Z" class="cls-3"></path>
    </g>
    <polygon points=".03 47.71 .69 47.72 .69 47.29 2.22 47.31 2.2 48.99 .67 48.97 .68 48.55 .02 48.54 0 50.12 .66 50.13 .66 49.71 4.58 49.75 4.57 50.18 5.23 50.19 5.25 48.6 4.59 48.6 4.59 49.02 2.86 49 2.88 47.32 4.61 47.34 4.6 47.77 5.26 47.77 5.28 46.2 4.62 46.19 4.62 46.61 .7 46.57 .71 46.14 .05 46.13 .03 47.71" class="cls-3"></polygon>
    <g class="cls-13">
      <path d="M2.54,42.84c-1.09.11-1.52.14-1.54.14h0s.42.16,1.46.58l.81.32.16-1.14-.88.1ZM5.88,41.47l-.21,1.57-.65-.09.06-.4-1,.11-.2,1.46.93.37.05-.4.65.09-.2,1.5-.65-.09.06-.42-3.24-1.35c-.23-.08-.45-.17-.49-.2h-.02c0,.08-.01.17-.03.25l-.03.2-.65-.09.22-1.64,4.69-.55.06-.42.65.09Z" class="cls-3"></path>
      <path d="M6.55,36.37l.63.17-.42,1.51-.63-.17.11-.42-1.28-.35c-1.07-.29-1.98-.57-1.99-.57v.02s.43.27,1.14.78l1.23.85-.13.48-1.49.1c-.87.08-1.4.09-1.41.1h0s.95.26,2.01.56l1.28.35.11-.4.63.17-.39,1.43-.63-.17.11-.41-3.78-1.04-.11.41-.63-.17.36-1.32,2.83-.21v-.02s-2.33-1.62-2.33-1.62l.35-1.28.63.17-.11.41,3.78,1.04.11-.41Z" class="cls-3"></path>
      <path d="M7.57,33.95c.2-.48,0-.87-.49-1.07-.55-.23-1-.03-1.19.42l-.25.61,1.66.69.27-.65ZM5.31,33.14c.16-.39.04-.77-.45-.97-.46-.19-.81-.03-1,.43l-.21.5,1.44.6.23-.55ZM5.81,32.61c.24-.32.77-.72,1.63-.37.84.35,1.11,1.04.73,1.94l-.72,1.74-.61-.25.16-.39-3.62-1.5-.16.39-.61-.25.68-1.64c.34-.82.99-1.09,1.73-.79.68.28.81.77.76,1.11h.02Z" class="cls-3"></path>
      <path d="M9.23,28.34c1.06.59,1.29,1.34.78,2.25-.51.91-1.26,1.11-2.33.52l-2.52-1.4-.21.37-.57-.32.78-1.4.58.32-.21.37,2.53,1.41c.6.33,1.04.31,1.35-.23.31-.55.09-.94-.51-1.27l-2.53-1.41-.21.37-.57-.32.75-1.35.57.32-.21.37,2.52,1.4Z" class="cls-3"></path>
      <path d="M10.05,25.27c.26-.36.28-.79-.27-1.19-.49-.35-.94-.28-1.27.17l-.31.43,1.49,1.08.35-.49ZM12.77,26.19l-2.26-.53-.14.19-.19.26,1.21.87.25-.35.53.38-.92,1.27-.53-.38.25-.35-3.18-2.29-.25.35-.53-.39,1.01-1.41c.6-.82,1.44-.89,2.17-.36.62.45.77.97.59,1.52l1.76.38.28-.39.53.38-.6.83Z" class="cls-3"></path>
      <path d="M16.11,22.31l-.46.51c-.3-.28-.36-.34-.37-.35h0c.07.35.04.82-.35,1.25-.69.76-1.75.79-3.17-.5-1.47-1.34-1.53-2.35-.82-3.13.36-.4.82-.54,1.16-.47v-.02s-.31-.32-.31-.32l.41-.45,1.32,1.2-.45.49-.14-.13c-.37-.34-.95-.42-1.4.08-.52.58-.28,1.27.69,2.15,1.08.99,1.8,1.09,2.29.55.41-.45.31-.99.15-1.27l-.6-.54-.66.73-.47-.43,1.13-1.24,2.07,1.88Z" class="cls-3"></path>
      <path d="M28.82,9.72c1.16,2.57.57,4.2-1.59,5.18-2.18.98-3.8.35-4.96-2.22l-2.15-4.76-.76.34-.85-1.89,3.57-1.62.85,1.89-.62.28,2.16,4.78c.48,1.06,1.01,1.54,1.93,1.12.93-.42.91-1.13.43-2.19l-2.16-4.78-.61.28-.85-1.89,3.39-1.53.85,1.89-.77.35,2.15,4.76Z" class="cls-3"></path>
      <path d="M42.41,9.01l.27,2.05-3.81.51-.27-2.06.77-.1-.17-1.31c-.24-1.8-.46-3.85-.46-3.85h-.06s-.19,1.22-.44,2.61l-.37,2.04-1.45.19-.91-1.87c-.62-1.27-1.14-2.45-1.16-2.45h-.05s.29,2.11.53,3.91l.17,1.31.71-.09.27,2.05-3.52.47-.27-2.06.82-.11-.92-6.95-.82.11-.27-2.05,3.67-.49,2.15,4.56h.05s.86-4.96.86-4.96L41.22,0l.27,2.05-.82.11.92,6.95.82-.11Z" class="cls-3"></path>
      <path d="M52.14,9.41c-.67,1.59-1.72,2.99-4.16,2.62-2.35-.35-3.78-2.01-3.13-6.38.64-4.35,2.45-5.42,4.45-5.13.99.15,1.58.56,1.88,1.1h.06s.14-.58.14-.58l1.91.28-.61,4.15-2.1-.31.04-.28c.14-.96-.18-1.94-1.24-2.1-1.18-.17-1.81.77-2.15,3.1-.42,2.82-.01,3.8,1.11,3.97.85.13,1.3-.42,1.68-1.36l2.12.93Z" class="cls-3"></path>
    </g>
    <polygon points="62.1 14.29 61.28 16.2 57.78 14.69 58.6 12.79 59.2 13.04 60.22 10.67 57.95 9.69 56.93 12.06 57.53 12.32 56.71 14.23 53.21 12.72 54.03 10.81 54.79 11.14 57.57 4.7 56.81 4.37 57.63 2.47 61.13 3.98 60.31 5.88 59.71 5.62 58.77 7.79 61.04 8.77 61.98 6.6 61.38 6.34 62.2 4.44 65.7 5.95 64.88 7.85 64.12 7.52 61.34 13.97 62.1 14.29" class="cls-3"></polygon>
  </g>
</svg>